<?xml version="1.0" standalone="no"?><!DOCTYPE svg PUBLIC "-//W3C//DTD SVG 1.1//EN" "http://www.w3.org/Graphics/SVG/1.1/DTD/svg11.dtd"><svg t="1504110312314" class="icon" style="" viewBox="0 0 1024 1024" version="1.1" xmlns="http://www.w3.org/2000/svg" p-id="9359" xmlns:xlink="http://www.w3.org/1999/xlink" width="200" height="200"><defs><style type="text/css"></style></defs><path d="M32.768 258.048l860.16 0c40.96 0 73.728 32.768 73.728 73.728l0 430.08 24.576-24.576-143.36 0 24.576 24.576 0-94.208 0-24.576-24.576 0L176.128 643.072 151.552 643.072l0 24.576 0 94.208 24.576-24.576L131.072 737.28c-40.96 0-73.728-32.768-73.728-73.728L57.344 237.568 32.768 258.048 32.768 258.048 32.768 258.048zM32.768 212.992 8.192 212.992l0 24.576 0 430.08c0 65.536 53.248 118.784 118.784 118.784l49.152 0 24.576 0 0-24.576 0-94.208-24.576 24.576 671.744 0-24.576-24.576 0 94.208 0 24.576 24.576 0 143.36 0 24.576 0 0-24.576L1015.808 331.776c0-65.536-53.248-118.784-118.784-118.784L32.768 212.992 32.768 212.992 32.768 212.992zM749.568 978.944l24.576-24.576L249.856 954.368l24.576 24.576 0-217.088c0-12.288-12.288-24.576-24.576-24.576-12.288 0-24.576 12.288-24.576 24.576l0 217.088c0 12.288 12.288 24.576 24.576 24.576l528.384 0c12.288 0 24.576-12.288 24.576-24.576l0-217.088c0-12.288-12.288-24.576-24.576-24.576-12.288 0-24.576 12.288-24.576 24.576L753.664 978.944 749.568 978.944zM212.992 425.984l311.296 0L524.288 380.928 212.992 380.928 212.992 425.984 212.992 425.984 212.992 425.984zM225.28 237.568 225.28 45.056 200.704 69.632l622.592 0-24.576-24.576 0 192.512 49.152 0L847.872 45.056 847.872 20.48l-24.576 0L200.704 20.48 176.128 20.48l0 24.576 0 192.512L225.28 237.568 225.28 237.568 225.28 237.568zM225.28 237.568" p-id="9360"></path></svg>