<?xml version="1.0" standalone="no"?><!DOCTYPE svg PUBLIC "-//W3C//DTD SVG 1.1//EN" "http://www.w3.org/Graphics/SVG/1.1/DTD/svg11.dtd"><svg t="1504110324151" class="icon" style="" viewBox="0 0 1024 1024" version="1.1" xmlns="http://www.w3.org/2000/svg" p-id="9482" xmlns:xlink="http://www.w3.org/1999/xlink" width="200" height="200"><defs><style type="text/css"></style></defs><path d="M942.03392 496.91648l-30.17216-30.17216h-0.00512l-181.01248-181.02272a21.3504 21.3504 0 0 0-30.17216 0l-30.16704 30.17216a21.3248 21.3248 0 0 0 0 30.16704l30.16704 30.17216 0.00512 0.00512 93.09696 93.09184H374.4256v85.33504h419.34848l-93.09696 93.09184v0.00512l-30.17216 30.17728a21.32992 21.32992 0 0 0 0 30.16704l30.17216 30.16704a21.3248 21.3248 0 0 0 30.16704 0l30.17216-30.16704 0.00512-0.00512 150.84032-150.84032 0.00512-0.00512 30.17216-30.17728a21.32992 21.32992 0 0 0-0.00512-30.16192z m-332.94336 377.7536H161.09568V149.33504h448A21.33504 21.33504 0 0 0 630.43072 128v-42.66496a21.33504 21.33504 0 0 0-21.33504-21.33504h-448c-47.1296 0-85.33504 38.21056-85.33504 85.33504v725.33504c0 47.11936 38.20544 85.32992 85.33504 85.32992h448a21.32992 21.32992 0 0 0 21.33504-21.32992V896a21.32992 21.32992 0 0 0-21.34016-21.32992z" fill="" p-id="9483"></path></svg>